<svg width="26" height="18" viewBox="0 0 26 18" fill="none" xmlns="http://www.w3.org/2000/svg">
<g clip-path="url(#clip0)">
<path d="M13.2708 4.5H6.22915C5.18373 4.5 4.33331 3.91125 4.33331 3.1875V2.0625C4.33331 1.752 4.69731 1.5 5.14581 1.5H6.88348C7.23881 0.63525 8.38823 0 9.74998 0C11.1117 0 12.2611 0.63525 12.6165 1.5H14.3541C14.8026 1.5 15.1666 1.752 15.1666 2.0625V3.1875C15.1666 3.91125 14.3162 4.5 13.2708 4.5Z" fill="#C4C4C4"/>
<path d="M23.8334 15.75C23.6286 15.75 23.4412 15.6698 23.3491 15.543L21.9527 13.6095C21.7653 13.35 21.6667 13.0605 21.6667 12.771V6C21.6667 5.17275 22.6384 4.5 23.8334 4.5C25.0283 4.5 26 5.17275 26 6V12.771C26 13.0605 25.9014 13.35 25.714 13.6095L24.3176 15.543C24.2255 15.6698 24.0381 15.75 23.8334 15.75ZM25.2298 13.4415H25.2406H25.2298Z" fill="#C4C4C4"/>
<path d="M16.5208 2.25H16.25V3.1875C16.25 4.32525 14.9143 5.25 13.2708 5.25H6.22917C4.58575 5.25 3.25 4.32525 3.25 3.1875V2.25H2.97917C1.33575 2.25 0 3.17475 0 4.3125V15.9375C0 17.0752 1.33575 18 2.97917 18H16.5208C18.1643 18 19.5 17.0752 19.5 15.9375V4.3125C19.5 3.17475 18.1643 2.25 16.5208 2.25ZM15.4375 15.75H4.0625C3.614 15.75 3.25 15.498 3.25 15.1875C3.25 14.877 3.614 14.625 4.0625 14.625H15.4375C15.886 14.625 16.25 14.877 16.25 15.1875C16.25 15.498 15.886 15.75 15.4375 15.75ZM15.4375 13.5H4.0625C3.614 13.5 3.25 13.248 3.25 12.9375C3.25 12.627 3.614 12.375 4.0625 12.375H15.4375C15.886 12.375 16.25 12.627 16.25 12.9375C16.25 13.248 15.886 13.5 15.4375 13.5ZM15.4375 11.25H4.0625C3.614 11.25 3.25 10.998 3.25 10.6875C3.25 10.377 3.614 10.125 4.0625 10.125H15.4375C15.886 10.125 16.25 10.377 16.25 10.6875C16.25 10.998 15.886 11.25 15.4375 11.25ZM15.4375 9H4.0625C3.614 9 3.25 8.748 3.25 8.4375C3.25 8.127 3.614 7.875 4.0625 7.875H15.4375C15.886 7.875 16.25 8.127 16.25 8.4375C16.25 8.748 15.886 9 15.4375 9Z" fill="#C4C4C4"/>
</g>
<defs>
<clipPath id="clip0">
<rect width="26" height="18" fill="white"/>
</clipPath>
</defs>
</svg>
