<svg width="26" height="26" viewBox="0 0 26 26" fill="none" xmlns="http://www.w3.org/2000/svg">
<path d="M20.9625 3.25001H21.9375V2.43751H19.9063C19.7985 2.43751 19.6952 2.48031 19.619 2.5565C19.5428 2.63269 19.5 2.73602 19.5 2.84376V4.87501H20.3125V3.77001C22.6109 5.59442 24.1457 8.2109 24.6165 11.1073C25.0873 14.0038 24.4602 16.9717 22.858 19.4301C21.2558 21.8885 18.7938 23.6606 15.9539 24.3993C13.114 25.1381 10.1006 24.7904 7.50346 23.4244L7.12158 24.1394C9.88309 25.5911 13.0851 25.9661 16.1074 25.1918C19.1296 24.4174 21.7568 22.5489 23.48 19.9481C25.2032 17.3474 25.8998 14.1996 25.4346 11.1146C24.9695 8.02963 23.3759 5.22711 20.9625 3.25001Z" fill="#515255" fill-opacity="0.75"/>
<path d="M5.68752 22.2341C3.38364 20.4115 1.84377 17.794 1.36991 14.8948C0.896048 11.9957 1.52239 9.02406 3.1261 6.56281C4.7298 4.10156 7.19516 2.32823 10.0387 1.59061C12.8822 0.85299 15.8987 1.2043 18.4966 2.57564L18.8785 1.86064C16.1169 0.408933 12.9149 0.0339189 9.89268 0.808253C6.87046 1.58259 4.24324 3.45114 2.52003 6.05189C0.796814 8.65265 0.100285 11.8004 0.565391 14.8854C1.0305 17.9704 2.62413 20.7729 5.03752 22.75H4.06252V23.5625H6.09377C6.20151 23.5625 6.30485 23.5197 6.38103 23.4435C6.45722 23.3673 6.50002 23.264 6.50002 23.1563V21.125H5.68752V22.2341Z" fill="#515255" fill-opacity="0.75"/>
<path d="M3.65631 13C3.65631 14.848 4.20431 16.6545 5.23102 18.1911C6.25772 19.7277 7.71702 20.9253 9.42436 21.6325C11.1317 22.3397 13.0104 22.5247 14.8229 22.1642C16.6354 21.8037 18.3003 20.9138 19.6071 19.607C20.9138 18.3003 21.8037 16.6354 22.1643 14.8229C22.5248 13.0104 22.3398 11.1317 21.6326 9.42431C20.9254 7.71696 19.7277 6.25767 18.1912 5.23097C16.6546 4.20426 14.8481 3.65626 13.0001 3.65626C10.5219 3.65626 8.14533 4.64069 6.39303 6.39298C4.64074 8.14527 3.65631 10.5219 3.65631 13ZM21.5313 13C21.5313 14.6873 21.031 16.3368 20.0935 17.7397C19.1561 19.1427 17.8237 20.2361 16.2648 20.8818C14.7059 21.5276 12.9906 21.6965 11.3357 21.3673C9.6808 21.0381 8.16067 20.2256 6.96756 19.0325C5.77444 17.8394 4.96192 16.3193 4.63274 14.6644C4.30356 13.0095 4.4725 11.2941 5.11821 9.73524C5.76392 8.17636 6.8574 6.84396 8.26035 5.90653C9.66331 4.96911 11.3127 4.46876 13.0001 4.46876C15.2627 4.46876 17.4326 5.36759 19.0326 6.9675C20.6325 8.56742 21.5313 10.7374 21.5313 13Z" fill="#C4C4C4"/>
<path d="M5.28125 13C5.28125 14.5266 5.73395 16.019 6.58209 17.2883C7.43024 18.5577 8.63574 19.547 10.0462 20.1312C11.4566 20.7154 13.0086 20.8683 14.5059 20.5705C16.0031 20.2726 17.3785 19.5375 18.458 18.458C19.5375 17.3785 20.2726 16.0032 20.5704 14.5059C20.8683 13.0086 20.7154 11.4566 20.1312 10.0462C19.547 8.63576 18.5576 7.43025 17.2883 6.58211C16.019 5.73396 14.5266 5.28126 13 5.28126C10.9529 5.28126 8.98957 6.09449 7.54202 7.54203C6.09447 8.98958 5.28125 10.9529 5.28125 13ZM17.3509 9.22595L18.1634 8.41345C19.1999 9.57 19.8142 11.0435 19.9062 12.5938H18.6875V13.4063H19.9062C19.8158 14.9522 19.206 16.4224 18.1756 17.5785L17.3631 16.766L16.7862 17.3428L17.5987 18.1553C16.4401 19.1973 14.9618 19.8147 13.4062 19.9063V18.6875H12.5937V19.9063C11.0478 19.8159 9.57763 19.206 8.42156 18.1757L9.23406 17.3631L8.65719 16.7863L7.84469 17.5988C6.81008 16.4373 6.19997 14.9593 6.11406 13.4063H7.3125V12.5938H6.11406C6.20448 11.0478 6.8143 9.57765 7.84469 8.42158L8.65719 9.23408L9.23406 8.6572L8.42156 7.8447C9.57763 6.81431 11.0478 6.2045 12.5937 6.11407V7.31251H13.4062V6.11407C14.9522 6.2045 16.4224 6.81431 17.5784 7.8447L16.7659 8.6572L17.3509 9.22595Z" fill="#C4C4C4"/>
<path d="M13.4063 8.12501H12.5938V13C12.5934 13.0535 12.6037 13.1065 12.6239 13.156C12.6441 13.2055 12.6739 13.2505 12.7116 13.2884L15.1491 15.7259L15.726 15.1491L13.4063 12.8334V8.12501Z" fill="#C4C4C4"/>
</svg>
