<svg width="27" height="30" viewBox="0 0 27 30" fill="none" xmlns="http://www.w3.org/2000/svg">
<g clip-path="url(#clip0)">
<path d="M21.2942 9.47609L22.4793 5.74011C22.5603 5.48479 22.5006 5.20761 22.3235 5.01686C22.1464 4.82611 21.889 4.76188 21.6521 4.849L20.6757 5.20835C20.4685 5.28465 20.3579 5.52738 20.4287 5.75053C20.4996 5.97379 20.7249 6.09285 20.932 6.01661L21.6358 5.75759L20.5221 9.26826C20.4584 9.46891 20.4817 9.68716 20.5859 9.86698L22.4609 13.1019L18.8494 12.7976C18.6097 12.7767 18.3811 12.8996 18.2513 13.1164L16.4221 16.1662L15.4913 12.8454C15.4282 12.6198 15.2655 12.4444 15.0559 12.3762L11.9728 11.3736L14.8042 9.40326C15.0055 9.26313 15.1188 9.01624 15.1001 8.7591L14.8176 4.86893L17.821 6.88864C17.9878 7.00064 18.1904 7.02569 18.3765 6.95719L19.3298 6.60633C19.537 6.53009 19.6476 6.2873 19.5768 6.06421C19.506 5.841 19.2804 5.72166 19.0735 5.79819L18.1837 6.12564L14.9999 3.98466C14.79 3.84356 14.5284 3.84168 14.3169 3.97987C14.1054 4.11812 13.986 4.369 14.0052 4.63468L14.303 8.73525L11.2859 10.8348C11.0702 10.9849 10.9585 11.2484 10.9943 11.5223C11.0302 11.7963 11.2052 12.0162 11.4512 12.0961L13.2241 12.6727L3.81632 22.8061C3.66149 22.9729 3.66149 23.2432 3.81632 23.41C3.89376 23.4934 3.99525 23.5351 4.0967 23.5351C4.19814 23.5351 4.29963 23.4934 4.37707 23.41L14.0855 12.9527L14.7541 13.1702L14.956 13.8904L11.9917 17.0835C11.8368 17.2503 11.8368 17.5206 11.9917 17.6874C12.0691 17.7708 12.1706 17.8125 12.272 17.8125C12.3735 17.8125 12.475 17.7708 12.5524 17.6874L15.2161 14.8182L15.7513 16.728C15.8255 16.9928 16.0297 17.1814 16.284 17.2201C16.3155 17.2248 16.3468 17.2272 16.3778 17.2272C16.5973 17.2272 16.8002 17.1096 16.9223 16.906L18.8715 13.6561L22.6784 13.9769C22.925 13.9974 23.1579 13.8691 23.2862 13.6412C23.4146 13.4134 23.4129 13.1315 23.2819 12.9055L21.2942 9.47609Z" fill="#3699FF"/>
<path d="M10.7949 18.3725L1.86722 27.989C1.60862 28.2675 1.20296 28.284 0.962868 28.0254C0.722824 27.7669 0.737995 27.3299 0.996699 27.0513L3.18035 24.6992C3.33518 24.5324 3.33518 24.262 3.18035 24.0952C3.02547 23.9285 2.77448 23.9285 2.61965 24.0952L0.435944 26.4473C-0.131841 27.0589 -0.147012 28.0377 0.402219 28.6293C0.670808 28.9186 1.02535 29.0625 1.38401 29.0625C1.7587 29.0625 2.13787 28.9054 2.42798 28.5929L11.3556 18.9765C11.5105 18.8096 11.5105 18.5393 11.3556 18.3725C11.2008 18.2058 10.9498 18.2058 10.7949 18.3725Z" fill="#3699FF"/>
<path d="M8.50957 8.93495C8.60187 8.98824 8.70479 9.01529 8.80803 9.01529C8.87532 9.01529 8.94288 9.00379 9.00753 8.98044L10.5697 8.41725C10.7753 8.34323 10.9293 8.16381 10.9816 7.93725C11.034 7.71074 10.9762 7.47444 10.827 7.30522L9.65873 5.98012C9.43073 5.72133 9.05309 5.69667 8.7992 5.92409L8.79925 5.92403C7.95479 6.67997 8.00617 7.74901 8.19795 8.51268C8.24325 8.69289 8.3568 8.84675 8.50957 8.93495ZM9.19402 6.69335L10.0765 7.6944L8.92242 8.11046C8.83388 7.67464 8.8104 7.12614 9.19402 6.69335Z" fill="#3699FF"/>
<path d="M17.235 2.91808C17.3537 3.10199 17.5456 3.20961 17.7523 3.20961C17.7609 3.20961 17.7696 3.20944 17.7783 3.20904C17.9949 3.19959 18.1892 3.07347 18.2981 2.87167L19.1507 1.29177C19.3171 0.983382 19.233 0.586228 18.9593 0.387622C18.9593 0.387622 18.9593 0.387565 18.9593 0.387565C18.0485 -0.273049 17.1105 0.0802619 16.484 0.492961C16.3362 0.59027 16.2309 0.750897 16.1952 0.93356C16.1596 1.11599 16.1958 1.30834 16.2946 1.46122L17.235 2.91808ZM18.3847 1.01174L17.7405 2.20519L17.0458 1.12898C17.4093 0.915054 17.8914 0.736776 18.3847 1.01174Z" fill="#3699FF"/>
<path d="M12.9473 2.73535C13.0256 2.83978 13.1402 2.89393 13.2558 2.89393C13.3433 2.89393 13.4314 2.86284 13.5048 2.79895C13.6751 2.65068 13.7016 2.38181 13.5639 2.19841L12.8416 1.23608C12.704 1.05267 12.4543 1.02415 12.284 1.17247C12.1137 1.32074 12.0873 1.58961 12.225 1.77302L12.9473 2.73535Z" fill="#3699FF"/>
<path d="M20.2364 17.4406C20.0792 17.28 19.8599 17.2177 19.6495 17.274C19.4392 17.3304 19.2726 17.4963 19.2039 17.7176L18.6811 19.4004C18.6262 19.5769 18.6416 19.7723 18.7232 19.9366C18.8051 20.1012 18.9479 20.2235 19.1153 20.2724C19.4213 20.3615 19.6958 20.3999 19.942 20.3999C20.7286 20.3999 21.2234 20.0071 21.5185 19.6247C21.7295 19.3513 21.7067 18.9446 21.4665 18.6989L20.2364 17.4406ZM19.4888 19.492L19.8751 18.2488L20.8045 19.1995C20.4026 19.6128 19.8933 19.5875 19.4888 19.492Z" fill="#3699FF"/>
<path d="M26.6593 8.68088C26.6593 8.68083 26.6593 8.68083 26.6593 8.68088C26.4749 8.38593 26.1063 8.29546 25.8198 8.47465L24.3531 9.39314C24.1658 9.51044 24.0487 9.71969 24.04 9.95297C24.0312 10.1862 24.1322 10.405 24.3101 10.5381L25.6624 11.5511C25.7687 11.6307 25.8953 11.6726 26.0233 11.6726C26.0664 11.6726 26.1097 11.6678 26.1523 11.6582C26.3219 11.6198 26.4711 11.5064 26.5614 11.3472C27.2558 10.1245 26.9979 9.22238 26.6593 8.68088ZM25.9711 10.7419L24.9719 9.99351L26.0799 9.29964C26.3353 9.83118 26.1697 10.3504 25.9711 10.7419Z" fill="#3699FF"/>
<path d="M25.8708 15.2706L24.9774 14.4925C24.807 14.3442 24.5575 14.3727 24.4199 14.5561C24.2822 14.7395 24.3087 15.0084 24.4789 15.1567L25.3723 15.9347C25.4457 15.9986 25.5338 16.0297 25.6213 16.0297C25.737 16.0297 25.8515 15.9755 25.9299 15.8711C26.0676 15.6877 26.0412 15.4188 25.8708 15.2706Z" fill="#3699FF"/>
<path d="M24.9279 2.43306C24.7783 2.26087 24.5274 2.25171 24.3675 2.41296L23.3764 3.41174C23.2165 3.57288 23.2081 3.84311 23.3577 4.01536C23.4358 4.10521 23.5414 4.15064 23.6474 4.15064C23.7444 4.15064 23.8417 4.11249 23.9181 4.03545L24.9092 3.03668C25.0691 2.87548 25.0775 2.60524 24.9279 2.43306Z" fill="#3699FF"/>
</g>
<defs>
<clipPath id="clip0">
<rect width="27" height="29.0422" fill="white" transform="translate(0 0.0204163)"/>
</clipPath>
</defs>
</svg>
