<svg width="26" height="26" viewBox="0 0 26 26" fill="none" xmlns="http://www.w3.org/2000/svg">
<path d="M25.1875 10.5625H23.7323L25.4747 8.81847C25.6303 8.66288 25.634 8.41181 25.4828 8.25216L18.1732 0.533406C18.0972 0.453375 17.9924 0.407469 17.8827 0.40625C17.7743 0.409094 17.667 0.4485 17.5894 0.5265L7.64156 10.5625H0.8125C0.587844 10.5625 0.40625 10.7445 0.40625 10.9688C0.40625 11.5115 0.707281 12.0063 1.21184 12.2923C1.46656 12.4365 1.625 12.7079 1.625 13C1.625 13.3648 1.37962 13.687 1.02903 13.7837C0.6565 13.886 0.40625 14.2025 0.40625 14.5722V14.6782C0.40625 15.0475 0.6565 15.3644 1.02863 15.4663C1.37963 15.563 1.625 15.8852 1.625 16.25C1.625 16.6148 1.37962 16.937 1.02903 17.0337C0.6565 17.136 0.40625 17.4525 0.40625 17.8222V17.9282C0.40625 18.2975 0.6565 18.6144 1.02863 18.7163C1.37963 18.813 1.625 19.1352 1.625 19.5C1.625 19.7921 1.46656 20.0635 1.21144 20.2077C0.707281 20.4937 0.40625 20.9885 0.40625 21.5312C0.40625 21.7555 0.587844 21.9375 0.8125 21.9375H5.48438C5.34381 22.2548 5.39337 22.6119 5.63387 22.8524L5.70862 22.9267C5.96984 23.1875 6.37041 23.2351 6.70637 23.0441C7.02325 22.8642 7.42422 22.9186 7.68178 23.1766C7.88856 23.3833 7.96819 23.6868 7.89019 23.9692C7.73581 24.5278 7.87272 25.0904 8.25622 25.4747C8.33259 25.5511 8.43578 25.5938 8.54344 25.5938C8.65109 25.5938 8.75469 25.5511 8.83066 25.4747L12.3679 21.9375H25.1875C25.4122 21.9375 25.5938 21.7555 25.5938 21.5312V10.9688C25.5938 10.7445 25.4122 10.5625 25.1875 10.5625ZM17.8709 1.39628L24.6208 8.52353L22.5847 10.5625H16.8244L21.006 6.38097L20.4315 5.80653L15.6756 10.5625H14.1993C14.1814 10.4926 14.1517 10.426 14.0997 10.374L13.5253 9.79956L12.9508 10.374L13.1393 10.5625H11.9901L11.5139 10.0868L12.0888 9.51194L12.376 9.79916L12.9504 9.22472L12.376 8.65028C12.2172 8.49144 11.9604 8.49144 11.8016 8.65028L10.6523 9.79956C10.5759 9.87594 10.5332 9.97913 10.5332 10.0868C10.5332 10.1944 10.5759 10.298 10.6523 10.374L10.8412 10.5625H8.78556L17.8709 1.39628ZM1.612 20.9146C2.12144 20.6265 2.4375 20.0846 2.4375 19.5C2.4375 18.7708 1.94675 18.1265 1.21875 17.9278L1.24434 17.8169C1.94675 17.6235 2.4375 16.9792 2.4375 16.25C2.4375 15.5208 1.94675 14.8765 1.21875 14.6778L1.24434 14.5669C1.94675 14.3735 2.4375 13.7292 2.4375 13C2.4375 12.4154 2.12144 11.8735 1.61241 11.5854C1.51206 11.5286 1.42838 11.4571 1.36459 11.375H7.57372C7.50953 11.4567 7.42584 11.5286 7.32591 11.5854C6.81606 11.8735 6.5 12.4154 6.5 13C6.5 13.7292 6.99075 14.3735 7.71875 14.5722L7.69316 14.6831C6.99075 14.8765 6.5 15.5208 6.5 16.25C6.5 16.9792 6.99075 17.6235 7.71875 17.8222L7.69316 17.9331C6.99075 18.1265 6.5 18.7708 6.5 19.5C6.5 20.0846 6.81606 20.6265 7.32509 20.9146C7.42544 20.9714 7.50913 21.0429 7.57291 21.125H1.36378C1.42838 21.0433 1.51206 20.9714 1.612 20.9146ZM8.64663 24.5103C8.63403 24.4071 8.64256 24.2974 8.67303 24.1865C8.82944 23.6226 8.66938 23.0161 8.25622 22.6025C7.73987 22.0862 6.93753 21.9781 6.28266 22.3523L6.22253 22.256C6.27941 22.1557 6.32369 22.048 6.35822 21.9379H8.125H11.219L8.64663 24.5103ZM24.7812 21.125H8.47234C8.36225 20.748 8.10022 20.4202 7.72525 20.2077C7.47094 20.0635 7.3125 19.7921 7.3125 19.5C7.3125 19.1352 7.55787 18.813 7.90847 18.7163C8.281 18.614 8.53125 18.2975 8.53125 17.9278V17.8222C8.53125 17.4529 8.281 17.136 7.90887 17.0341C7.55788 16.937 7.3125 16.6148 7.3125 16.25C7.3125 15.8852 7.55787 15.563 7.90847 15.4663C8.281 15.364 8.53125 15.0475 8.53125 14.6778V14.5722C8.53125 14.2029 8.281 13.886 7.90887 13.7841C7.55788 13.687 7.3125 13.3648 7.3125 13C7.3125 12.7079 7.47094 12.4365 7.72606 12.2923C8.10063 12.0798 8.36266 11.752 8.47275 11.375H24.7812V21.125Z" fill="#515255" fill-opacity="0.75"/>
<path d="M3.25 12.5938H5.6875V13.4062H3.25V12.5938Z" fill="#515255" fill-opacity="0.75"/>
<path d="M3.25 14.2188H5.6875V15.0312H3.25V14.2188Z" fill="#515255" fill-opacity="0.75"/>
<path d="M3.25 15.8438H5.6875V16.6562H3.25V15.8438Z" fill="#515255" fill-opacity="0.75"/>
<path d="M3.25 17.4688H5.6875V18.2812H3.25V17.4688Z" fill="#515255" fill-opacity="0.75"/>
<path d="M3.25 19.0938H5.6875V19.9062H3.25V19.0938Z" fill="#515255" fill-opacity="0.75"/>
<path d="M10.1562 15.4375H10.9688V13H11.7812V12.1875H9.34375V13H10.1562V15.4375Z" fill="#515255" fill-opacity="0.75"/>
<path d="M22.3438 15.4375H23.1562V13H23.9688V12.1875H21.5312V13H22.3438V15.4375Z" fill="#515255" fill-opacity="0.75"/>
<path d="M12.1875 12.1875H13V15.4375H12.1875V12.1875Z" fill="#515255" fill-opacity="0.75"/>
<path d="M13.8125 15.4375H15.4375C15.6622 15.4375 15.8438 15.2555 15.8438 15.0312V14.2188H15.0312V14.625H14.2188V13H15.0312V13.4062H15.8438V12.5938C15.8438 12.3695 15.6622 12.1875 15.4375 12.1875H13.8125C13.5878 12.1875 13.4062 12.3695 13.4062 12.5938V15.0312C13.4062 15.2555 13.5878 15.4375 13.8125 15.4375Z" fill="#515255" fill-opacity="0.75"/>
<path d="M17.0625 14.0636L17.3887 13.9007L17.875 14.3869V15.4375H18.6875V14.2188C18.6875 14.1111 18.6448 14.0075 18.5685 13.9315L18.1545 13.5176L18.4628 13.3632C18.6006 13.2945 18.6875 13.154 18.6875 13V12.1875H17.875V12.7489L17.0625 13.1552V12.1875H16.25V15.4375H17.0625V14.0636Z" fill="#515255" fill-opacity="0.75"/>
<path d="M19.5 15.4375H21.125V14.625H19.9062V14.2188H21.125V13.4062H19.9062V13H21.125V12.1875H19.5C19.2753 12.1875 19.0938 12.3695 19.0938 12.5938V15.0312C19.0938 15.2555 19.2753 15.4375 19.5 15.4375Z" fill="#515255" fill-opacity="0.75"/>
<path d="M17.2595 4.34118L18.9833 6.0649L19.5577 5.49046L17.834 3.76675L18.4084 3.19231L17.834 2.61787L16.1107 4.34159L16.6851 4.91603L17.2595 4.34118Z" fill="#515255" fill-opacity="0.75"/>
<path d="M15.2486 9.79956L14.2772 8.82781L14.3926 8.48209H15.0808L15.8238 9.22472L16.3982 8.65028L15.5362 7.78862C15.4598 7.71225 15.3566 7.66959 15.249 7.66959H14.6636L14.7724 7.34256C14.8212 7.19671 14.783 7.03543 14.6745 6.92696L14.1001 6.35252L13.5256 6.92696L13.9226 7.32387L13.6353 8.18553L12.9512 7.5014L12.3768 8.07584L14.6745 10.374L15.2486 9.79956Z" fill="#515255" fill-opacity="0.75"/>
<path d="M16.3979 8.07544C16.4771 8.15466 16.5811 8.19447 16.6851 8.19447C16.7891 8.19447 16.8931 8.15466 16.9723 8.07544L18.1212 6.92656L17.5467 6.35213L16.6851 7.21378L16.3979 6.92656L17.2595 6.0645L16.6851 5.49006L15.8234 6.35213L15.5358 6.0645L16.3979 5.20284L15.8234 4.62841L14.6741 5.77728C14.5978 5.85366 14.5551 5.95684 14.5551 6.0645C14.5551 6.17216 14.5978 6.27575 14.6741 6.35172L16.3979 8.07544Z" fill="#515255" fill-opacity="0.75"/>
<path d="M9.34375 16.25H23.9688V17.0625H9.34375V16.25Z" fill="#515255" fill-opacity="0.75"/>
<path d="M18.2812 17.875H23.9688V18.6875H18.2812V17.875Z" fill="#515255" fill-opacity="0.75"/>
<path d="M19.2096 9.46392L21.6466 7.02687L22.2211 7.60131L19.784 10.0384L19.2096 9.46392Z" fill="#515255" fill-opacity="0.75"/>
<path d="M9.75 20.3125H16.25C16.4747 20.3125 16.6562 20.1305 16.6562 19.9062V18.2812C16.6562 18.057 16.4747 17.875 16.25 17.875H9.75C9.52534 17.875 9.34375 18.057 9.34375 18.2812V19.9062C9.34375 20.1305 9.52534 20.3125 9.75 20.3125ZM10.1562 18.6875H15.8438V19.5H10.1562V18.6875Z" fill="#515255" fill-opacity="0.75"/>
</svg>
