<?xml version="1.0" encoding="utf-8"?>
<!-- Generator: Adobe Illustrator 16.0.0, SVG Export Plug-In . SVG Version: 6.00 Build 0)  -->
<!DOCTYPE svg PUBLIC "-//W3C//DTD SVG 1.1//EN" "http://www.w3.org/Graphics/SVG/1.1/DTD/svg11.dtd">
<svg version="1.1" id="Layer_1" xmlns="http://www.w3.org/2000/svg" xmlns:xlink="http://www.w3.org/1999/xlink" x="0px" y="0px"
	 width="160.219px" height="181.898px" viewBox="0 0 160.219 181.898" style="enable-background:new 0 0 160.219 181.898;"
	 xml:space="preserve">
<path style="fill:#FEFEFE;" d="M148.434,1.324c-2.078,1.041-4.082,2.232-6.098,3.393C108.063,24.439,73.788,44.158,39.527,63.902
	C27.87,70.619,16.164,77.262,4.645,84.211c-6.223,3.752-6.119,9.469-0.13,13.455c1.38,0.92,2.863,1.684,4.302,2.514
	c14.395,8.297,28.791,16.59,43.185,24.887c31.671,18.254,63.314,36.559,95.031,54.734c8.063,4.621,13.166,1.443,13.172-7.906
	c0.016-26.984,0.004-53.969,0.004-80.951c0-8.162,0.002-16.324,0-24.487c0-19.32,0.037-38.643-0.02-57.965
	C160.167,1.099,155.04-1.987,148.434,1.324z"/>
</svg>
