<?xml version="1.0" encoding="utf-8"?>
<!-- Generator: Adobe Illustrator 16.0.0, SVG Export Plug-In . SVG Version: 6.00 Build 0)  -->
<!DOCTYPE svg PUBLIC "-//W3C//DTD SVG 1.1//EN" "http://www.w3.org/Graphics/SVG/1.1/DTD/svg11.dtd">
<svg version="1.1" id="Layer_1" xmlns="http://www.w3.org/2000/svg" xmlns:xlink="http://www.w3.org/1999/xlink" x="0px" y="0px"
	 width="166px" height="188px" viewBox="0 0 166 188" style="enable-background:new 0 0 166 188;" xml:space="preserve">
<path style="fill:#00C5FE;" d="M159,0c-2.334,0-4.666,0-7,0c-0.467,0.404-0.883,0.897-1.408,1.2
	C103.248,28.494,55.907,55.795,8.519,83.01C4.98,85.043,1.947,87.383,0,91c0,2,0,4,0,6c1.709,2.41,3.209,4.883,5.969,6.465
	C55.005,131.6,103.998,159.807,153,188c2,0,4,0,6,0c3.707-0.961,6.04-3.293,7-7c0-58,0-116,0-174C165.04,3.293,162.707,0.96,159,0z
	 M163.098,69.508c0.002,8.162,0,16.325,0,24.487c0,26.982,0.012,53.967-0.004,80.951c-0.006,9.35-5.109,12.527-13.172,7.906
	c-31.717-18.176-63.359-36.48-95.031-54.734c-14.394-8.297-28.79-16.59-43.185-24.887c-1.439-0.83-2.922-1.594-4.302-2.514
	c-5.988-3.986-6.092-9.703,0.13-13.455C19.054,80.313,30.76,73.67,42.417,66.953C76.678,47.209,110.953,27.49,145.227,7.768
	c2.016-1.16,4.02-2.352,6.098-3.393c6.605-3.311,11.732-0.225,11.754,7.168C163.135,30.865,163.098,50.188,163.098,69.508z"/>
</svg>
